<?xml version="1.0"?>
<svg xmlns="http://www.w3.org/2000/svg" id="Capa_1" enable-background="new 0 0 512 512" height="512px" viewBox="0 0 512 512" width="512px" class=""><g><g transform="matrix(1 0 0 1 0 0)"><path d="m371.799 0h-231.598c-27.13 0-49.201 22.071-49.201 49.201v413.599c0 27.129 22.071 49.2 49.201 49.2h231.599c27.129 0 49.2-22.071 49.2-49.201v-413.598c0-27.13-22.071-49.201-49.201-49.201zm-168.527 30h105.456v14.547c0 1.754-1.427 3.181-3.181 3.181h-99.094c-1.754 0-3.181-1.427-3.181-3.181zm187.728 432.799c0 10.587-8.613 19.201-19.201 19.201h-231.598c-10.588 0-19.201-8.613-19.201-19.201v-413.598c0-10.588 8.613-19.201 19.201-19.201h33.071v14.547c0 18.296 14.885 33.181 33.181 33.181h99.094c18.296 0 33.181-14.885 33.181-33.181v-14.547h33.071c10.588 0 19.201 8.613 19.201 19.201z" data-original="#C12064" class="active-path" data-old_color="#000000" fill="#C12064"/><path d="m300.547 428.728h-89.094c-8.284 0-15 6.716-15 15s6.716 15 15 15h89.094c8.284 0 15-6.716 15-15s-6.716-15-15-15z" data-original="#C12064" class="active-path" data-old_color="#000000" fill="#C12064"/><path d="m259.317 184.938-3.317 3.313-3.317-3.313c-22.318-22.291-58.634-22.291-80.953 0-10.817 10.804-16.775 25.17-16.775 40.453 0 15.282 5.958 29.647 16.775 40.452l73.67 73.579c2.928 2.924 6.764 4.387 10.6 4.387s7.672-1.462 10.6-4.387l73.67-73.579c10.817-10.804 16.775-25.17 16.775-40.452s-5.958-29.648-16.775-40.453c-22.319-22.291-58.634-22.291-80.953 0zm59.753 59.678-63.07 62.992-63.07-62.992c-5.143-5.136-7.975-11.964-7.975-19.226s2.832-14.09 7.975-19.226c5.315-5.309 12.294-7.962 19.276-7.962 6.98 0 13.962 2.655 19.276 7.962l13.917 13.9c5.856 5.849 15.344 5.849 21.2 0l13.917-13.9c10.629-10.616 27.924-10.616 38.552 0 5.143 5.137 7.976 11.964 7.976 19.226s-2.831 14.09-7.974 19.226z" data-original="#C12064" class="active-path" data-old_color="#000000" fill="#C12064"/></g></g> </svg>
